<?xml version="1.0" encoding="utf-8"?>
<!-- Generator: Adobe Illustrator 23.1.1, SVG Export Plug-In . SVG Version: 6.00 Build 0)  -->
<svg version="1.1" id="Layer_1" xmlns:sketch="http://www.bohemiancoding.com/sketch/ns"
	 xmlns="http://www.w3.org/2000/svg" xmlns:xlink="http://www.w3.org/1999/xlink" x="0px" y="0px" viewBox="0 0 46 46"
	 style="enable-background:new 0 0 46 46;" xml:space="preserve">
<style type="text/css">
	.st0{fill-rule:evenodd;clip-rule:evenodd;fill:#4285F4;}
	.st1{fill-rule:evenodd;clip-rule:evenodd;fill:#34A853;}
	.st2{fill-rule:evenodd;clip-rule:evenodd;fill:#FBBC05;}
	.st3{fill-rule:evenodd;clip-rule:evenodd;fill:#EA4335;}
	.st4{fill:none;}
</style>
<title>btn_google_light_normal_ios</title>
<desc>Created with Sketch.</desc>
<g id="Google-Button" sketch:type="MSPage">
	<g transform="translate(-608.000000, -160.000000)" sketch:type="MSArtboardGroup">
	</g>
	<g id="btn_google_light_normal" transform="translate(-1.000000, -1.000000)" sketch:type="MSArtboardGroup">
		<g id="logo_googleg_48dp" transform="translate(15.000000, 15.000000)" sketch:type="MSLayerGroup">
			<path id="Shape" sketch:type="MSShapeGroup" class="st0" d="M30.2,9.5c0-1.6-0.1-3.1-0.4-4.5H9v8.5h11.9
				c-0.5,2.8-2.1,5.1-4.4,6.7v5.5h7.1C27.8,21.9,30.2,16.2,30.2,9.5L30.2,9.5z"/>
			<path sketch:type="MSShapeGroup" class="st1" d="M9,31c5.9,0,10.9-2,14.6-5.3l-7.1-5.5c-2,1.3-4.5,2.1-7.5,2.1
				c-5.7,0-10.6-3.9-12.3-9.1h-7.4v5.7C-7.1,26.1,0.4,31,9,31L9,31z"/>
			<path sketch:type="MSShapeGroup" class="st2" d="M-3.3,13.2C-3.8,11.9-4,10.5-4,9s0.3-2.9,0.7-4.2v-5.7h-7.4
				C-12.2,2.1-13,5.4-13,9s0.9,6.9,2.3,9.9L-3.3,13.2L-3.3,13.2z"/>
			<path sketch:type="MSShapeGroup" class="st3" d="M9-4.3c3.2,0,6.1,1.1,8.4,3.3l6.3-6.3C19.9-10.9,14.9-13,9-13
				C0.4-13-7.1-8.1-10.7-0.9l7.4,5.7C-1.6-0.4,3.3-4.3,9-4.3L9-4.3z"/>
			<path sketch:type="MSShapeGroup" class="st4" d="M-13-13H31V31H-13V-13z"/>
		</g>
	</g>
</g>
</svg>
